<svg width="16" height="16" viewBox="0 0 16 16" fill="none" xmlns="http://www.w3.org/2000/svg">
<path d="M9.21788 0.787116L10.6356 3.77894C10.7333 3.985 10.8776 4.16316 11.0561 4.29807C11.2346 4.43298 11.4419 4.52057 11.6601 4.5533L14.8314 5.03375C15.0836 5.0712 15.3207 5.18175 15.5156 5.3528C15.7105 5.52385 15.8555 5.74854 15.9339 6.00127C16.0123 6.25401 16.0212 6.52463 15.9593 6.78233C15.8975 7.04003 15.7675 7.27445 15.5842 7.45889L13.2905 9.79076C13.1323 9.95136 13.014 10.1497 12.9458 10.3686C12.8776 10.5875 12.8615 10.8205 12.8989 11.0473L13.4407 14.3401C13.4832 14.5999 13.4553 14.8669 13.3603 15.1111C13.2652 15.3552 13.1067 15.5669 12.9026 15.7224C12.6985 15.8778 12.4569 15.9707 12.2049 15.9908C11.9529 16.0109 11.7005 15.9573 11.4761 15.836L8.63053 14.2803C8.4356 14.1724 8.21829 14.116 7.99762 14.116C7.77694 14.116 7.55963 14.1724 7.3647 14.2803L4.52924 15.836C4.3046 15.9597 4.0512 16.0153 3.79781 15.9964C3.54441 15.9775 3.30117 15.8849 3.09571 15.7291C2.89024 15.5733 2.73077 15.3606 2.63541 15.1151C2.54005 14.8696 2.51262 14.6011 2.55623 14.3401L3.09631 11.0473C3.13324 10.82 3.11641 10.5868 3.04729 10.3678C2.97817 10.1488 2.85885 9.95075 2.69969 9.79076L0.411061 7.45889C0.229181 7.27412 0.100528 7.03996 0.0396599 6.7829C-0.0212078 6.52584 -0.0118601 6.25615 0.0666454 6.00434C0.145151 5.75253 0.28968 5.52867 0.483877 5.35807C0.678075 5.18747 0.914188 5.07696 1.1655 5.03903L4.33683 4.55858C4.55473 4.52559 4.76167 4.43787 4.93984 4.30297C5.11801 4.16808 5.26207 3.99005 5.35962 3.78422L6.77904 0.792396C6.891 0.555056 7.06437 0.355084 7.27957 0.215063C7.49477 0.0750431 7.74323 0.000552189 7.99689 3.05812e-06C8.25055 -0.000546072 8.4993 0.0728684 8.71506 0.211956C8.93081 0.351043 9.10498 0.550263 9.21788 0.787116V0.787116Z" fill="#EAAC30"/>
</svg>
