<svg width="16" height="16" viewBox="0 0 16 16" fill="none" xmlns="http://www.w3.org/2000/svg">
<path d="M10.1838 3.99306L10.1838 3.99317C10.3153 4.27052 10.5106 4.51253 10.7546 4.69695C10.9986 4.88134 11.2836 5.00232 11.5853 5.04768C11.5855 5.04771 11.5857 5.04774 11.5859 5.04777L14.7565 5.52811L14.758 5.52833C14.9134 5.55141 15.0618 5.61982 15.1858 5.7286C15.31 5.83756 15.4047 5.98289 15.4564 6.14949C15.5081 6.31619 15.514 6.49531 15.4731 6.66568C15.4323 6.83597 15.3469 6.98831 15.2296 7.1064L15.2277 7.10827L12.9342 9.43994C12.7192 9.6583 12.56 9.92626 12.4685 10.2199C12.377 10.5133 12.3555 10.825 12.4056 11.1285C12.4056 11.1286 12.4056 11.1286 12.4056 11.1287L12.9473 14.4208C12.9473 14.4209 12.9473 14.421 12.9473 14.4211C12.9753 14.593 12.9567 14.7693 12.8943 14.9297C12.8319 15.09 12.729 15.2261 12.5997 15.3245C12.4707 15.4228 12.3201 15.4801 12.1652 15.4924C12.0107 15.5047 11.8549 15.4721 11.7149 15.3967C11.7145 15.3965 11.7142 15.3963 11.7139 15.3961L8.87261 13.8428C8.87222 13.8426 8.87184 13.8423 8.87145 13.8421C8.60346 13.6941 8.30338 13.616 7.99762 13.616C7.69173 13.616 7.39153 13.6942 7.12346 13.8423C7.12318 13.8425 7.1229 13.8426 7.12262 13.8428L4.28872 15.3977L4.28803 15.398C4.14751 15.4754 3.99072 15.5094 3.83499 15.4978C3.6792 15.4862 3.52766 15.4292 3.39779 15.3307C3.2677 15.2321 3.16412 15.0953 3.10149 14.9341C3.03883 14.7727 3.02052 14.5952 3.04939 14.4225L3.04963 14.421L3.58972 11.1283L3.58984 11.1275C3.63926 10.8233 3.61681 10.511 3.5241 10.2173C3.43155 9.92409 3.27129 9.6568 3.0554 9.43937C3.05498 9.43896 3.05457 9.43854 3.05415 9.43812L0.767908 7.10866L0.76739 7.10814C0.650894 6.98979 0.566433 6.83758 0.526206 6.66769C0.485963 6.49774 0.492207 6.31924 0.543985 6.15316C0.595733 5.98718 0.690161 5.84238 0.813867 5.73371C0.937377 5.62521 1.08524 5.55681 1.24011 5.53343L1.24039 5.53339L4.41169 5.05294C4.4117 5.05294 4.41171 5.05294 4.41172 5.05294C4.71326 5.00727 4.99798 4.88609 5.24165 4.70161C5.48521 4.51721 5.68015 4.2754 5.81145 3.99836L7.23078 1.00672L7.23125 1.00571C7.30455 0.85034 7.41663 0.722408 7.55226 0.634161C7.68766 0.546058 7.84199 0.50034 7.99797 0.500002C8.15395 0.499664 8.30843 0.544713 8.44414 0.632202C8.57996 0.719752 8.69243 0.847002 8.76633 1.00182C8.7664 1.00197 8.76647 1.00212 8.76653 1.00226L10.1838 3.99306Z" stroke="#EAAC30"/>
</svg>
