<svg width="36" height="40" viewBox="0 0 36 40" fill="none" xmlns="http://www.w3.org/2000/svg">
<g clip-path="url(#clip0_1359_17122)">
<path d="M29.3 26C27.7 28.2 25.1 29.6 22.2 29.6H18.1C16.7 29.6 15.5 28.7 15 27.5C14.4 27.3 13.9 27.1 13.4 26.8C12.3 26.2 11.2 25.5 10.3 24.5C4.4 25.9 0 31.1 0 37.4V38.2C0 39.3 0.9 40.2 2 40.2H33.7C34.8 40.2 35.7 39.3 35.7 38.2V37.4C35.8 32.5 33.2 28.3 29.3 26Z" fill="#1AA3E9"/>
<path d="M8.09999 20.3C8.99999 20.3 9.69999 19.8 10.1 19.1V19.2C11 21.6 12.8 23.7 15.2 24.6C15.8 23.7 16.8 23.1 18 23.1H22.1C22.5 23.1 22.9 23 23.2 22.8C23.8 22.5 24.3 21.7 24.5 21.3C24.9 20.6 25.2 19.9 25.5 19.1C25.7 19.4 25.9 19.6 26.1 19.8V20.8C26.1 23.1 24.3 24.9 22 24.9H17.9C17.1 24.9 16.5 25.5 16.5 26.3C16.5 27.1 17.1 27.7 17.9 27.7H22C25.8 27.7 28.9 24.6 28.9 20.8V19.8C29.5 19.4 29.8 18.7 29.8 17.9V13.7V12.1C29.8 11.3 29.4 10.6 28.8 10.2C28.6 4.5 23.8 0 17.9 0C12.1 0 7.19999 4.5 6.79999 10.3C6.19999 10.7 5.79999 11.4 5.79999 12.2V18C5.79999 19.3 6.89999 20.3 8.09999 20.3ZM17.9 2.8C22.2 2.8 25.8 6.1 26.2 10.4C25.9 10.6 25.7 10.9 25.5 11.2C24.2 7.8 21.2 5.4 17.8 5.4C14.3 5.4 11.4 7.9 10.1 11.2C9.89999 10.9 9.69999 10.6 9.39999 10.4C9.99999 6.1 13.6 2.8 17.9 2.8Z" fill="#1AA3E9"/>
<path d="M30.1 12.2V18.1C30.1 18.9 29.7 19.6 29.1 20V20.9C29.1 24.7 26 27.8 22.2 27.8H18.1C17.3 27.8 16.7 27.2 16.7 26.4C16.7 25.6 17.3 25 18.1 25H22.2C24.5 25 26.3 23.2 26.3 20.9V20C26 19.8 25.8 19.5 25.6 19.2C25.4 18.9 25.3 18.5 25.3 18.1V12.2C25.3 11.8 25.4 11.4 25.6 11.1C25.8 10.8 26 10.5 26.3 10.3C25.9 6.1 22.3 2.8 18 2.8C13.7 2.8 10.1 6.1 9.70001 10.3L9.80001 10.4L9.90001 10.5C9.90001 10.6 10 10.6 10 10.7L10.1 10.8C10.1 10.8 10.2 10.9 10.2 11C10.4 11.3 10.5 11.7 10.5 12.1V18C10.5 18.4 10.4 18.8 10.2 19.1C9.80001 20 9.00001 20.5 8.10001 20.5C6.80001 20.5 5.70001 19.4 5.70001 18.1V12.2C5.70001 11.5 6.00001 10.9 6.50001 10.4C6.60001 10.3 6.60001 10.3 6.70001 10.2C7.20001 4.5 12.1 0 17.9 0C23.8 0 28.6 4.5 29 10.3C29.1 10.4 29.2 10.5 29.3 10.5C29.8 11 30.1 11.6 30.1 12.2Z" fill="#76C8F2"/>
</g>
<defs>
<clipPath id="clip0_1359_17122">
<rect width="36" height="40" fill="white"/>
</clipPath>
</defs>
</svg>
