<svg width="24" height="24" viewBox="0 0 24 24" fill="none" xmlns="http://www.w3.org/2000/svg">
<path d="M8.84194 2.78906C4.11639 2.78906 0.500122 5.99565 0.500122 9.49117C0.500122 12.9867 3.62237 15.0121 3.62237 15.0121L3.11493 16.9355C3.04785 17.189 3.31954 17.3984 3.54762 17.269L5.82846 15.9767C6.8371 16.2977 8.97754 16.4003 9.18598 16.4099C9.03648 15.8914 8.96269 15.3806 8.96269 14.9038C8.96269 12.2061 11.3116 8.40633 16.533 8.40633C16.6519 8.40633 16.7707 8.40921 16.8895 8.414C16.1947 5.08858 12.7419 2.78906 8.84194 2.78906Z" fill="#1AA3E9"/>
<path d="M23.5 14.4807C23.5 11.4188 19.9077 9.17676 16.5324 9.17676C11.759 9.17676 9.73352 12.6244 9.73352 14.9028C9.73352 17.186 11.7585 20.6288 16.5324 20.6288C17.5885 20.6288 18.5176 20.4774 19.3255 20.2091L21.1209 21.3485C21.2628 21.4386 21.442 21.3117 21.4041 21.1478L20.9968 19.3797C22.6931 18.198 23.5 16.3355 23.5 14.4807Z" fill="#76C8F2"/>
</svg>
