<svg width="40" height="40" viewBox="0 0 40 40" fill="none" xmlns="http://www.w3.org/2000/svg">
<g clip-path="url(#clip0_1358_17106)">
<path d="M38.6424 23.1282L36.3034 21.7788C36.3607 21.1981 36.3934 20.6011 36.3934 19.9959C36.3934 19.3907 36.3934 18.8019 36.3034 18.213L38.6424 16.8636C39.1419 16.573 39.5064 16.0968 39.6565 15.5387C39.7292 15.265 39.7471 14.9796 39.7093 14.6989C39.6714 14.4182 39.5784 14.1478 39.4357 13.9031L34.9295 6.09282C34.7401 5.7632 34.4674 5.48917 34.1387 5.29825C33.81 5.10733 33.4368 5.00624 33.0567 5.00511C32.6748 5.0079 32.3001 5.10932 31.9689 5.29953L29.6218 6.65713C28.662 5.96142 27.6279 5.37444 26.5386 4.90697V2.16725C26.5386 1.59246 26.3102 1.04121 25.9038 0.634772C25.4974 0.228334 24.9461 0 24.3713 0L15.3752 0C14.8004 0 14.2492 0.228334 13.8427 0.634772C13.4363 1.04121 13.208 1.59246 13.208 2.16725V4.90697C12.1181 5.38662 11.0841 5.98449 10.1247 6.68984L7.75303 5.29953C7.42817 5.10854 7.05852 5.00696 6.68168 5.00511C6.30048 5.00645 5.92628 5.10757 5.59628 5.29839C5.26628 5.48922 4.99198 5.76311 4.80067 6.09282L0.286257 13.9031C0.00758205 14.4006 -0.0685758 14.9865 0.073622 15.5387C0.14591 15.8138 0.272037 16.0718 0.444704 16.2979C0.617372 16.5239 0.83315 16.7134 1.07955 16.8555L3.4349 18.213C3.36259 18.8046 3.32708 19.4 3.32858 19.9959C3.32659 20.5918 3.3621 21.1873 3.4349 21.7788L1.07955 23.1282C0.583072 23.4165 0.221289 23.8901 0.073622 24.4449C-0.069437 24.9971 0.00676309 25.5833 0.286257 26.0806L4.80067 33.899C4.99363 34.2266 5.2685 34.4985 5.59829 34.6877C5.92808 34.877 6.30144 34.9772 6.68168 34.9785C7.05783 34.9796 7.42752 34.8808 7.75303 34.6923L10.1084 33.3265C11.0672 34.0486 12.1009 34.6655 13.1916 35.1666V37.8737C13.19 38.1576 13.2448 38.439 13.353 38.7015C13.4611 38.9641 13.6203 39.2025 13.8213 39.403C14.2295 39.8103 14.7822 40.0396 15.3588 40.0409H24.355C24.6396 40.0409 24.9214 39.9848 25.1843 39.8759C25.4473 39.767 25.6862 39.6074 25.8874 39.4061C26.0887 39.2049 26.2483 38.966 26.3572 38.703C26.4661 38.4401 26.5222 38.1583 26.5222 37.8737V35.1666C27.6117 34.6828 28.6454 34.0823 29.6054 33.3756L31.9526 34.7414C32.2848 34.928 32.6592 35.0266 33.0403 35.0276C33.4195 35.0265 33.7918 34.9263 34.1203 34.7369C34.4488 34.5476 34.7221 34.2756 34.9131 33.9481L39.4194 26.1296C39.5629 25.8853 39.6563 25.6148 39.6943 25.334C39.7322 25.0532 39.7138 24.7676 39.6402 24.494C39.5012 23.9247 39.1425 23.4337 38.6424 23.1282V23.1282ZM19.8324 31.7563C19.5543 31.7563 19.2926 31.7563 19.0145 31.7563H18.8919C18.6383 31.7563 18.393 31.7154 18.1395 31.6827C17.8859 31.65 17.5179 31.5682 17.2071 31.5028C16.8964 31.4373 16.7001 31.3801 16.4466 31.3065C16.2339 31.2411 16.0049 31.1593 15.7923 31.0775L15.5797 30.9957C15.367 30.9139 15.138 30.824 14.9336 30.7258H14.8845L14.2302 30.4069L14.1403 30.2597C13.9195 30.137 13.715 30.0061 13.5024 29.8753C12.0842 28.9587 10.8793 27.7483 9.96935 26.3259L9.92028 26.2359C9.80262 26.0601 9.69609 25.8771 9.60133 25.688C9.47047 25.4672 9.36416 25.2464 9.25784 25.0256L9.10245 24.6984C9.01249 24.4776 8.92253 24.265 8.84892 24.036C8.77532 23.807 8.67718 23.578 8.61175 23.349C8.54633 23.12 8.48908 22.891 8.44001 22.6539C8.41344 22.5596 8.3916 22.4641 8.37458 22.3676C8.32551 22.1468 8.2928 21.9342 8.25191 21.7134C8.21102 21.4925 8.18648 21.1736 8.17013 20.8955C8.16608 20.8657 8.16608 20.8354 8.17013 20.8056C8.17013 20.5357 8.17013 20.2658 8.17013 19.9877C8.17339 17.6616 8.86686 15.3888 10.1627 13.4571C11.4586 11.5254 13.2986 10.0217 15.4496 9.13643C17.6007 8.25115 19.966 8.02412 22.2462 8.48409C24.5264 8.94405 26.6188 10.0703 28.2584 11.7203C29.898 13.3702 31.0112 15.4696 31.4568 17.7527C31.9025 20.0357 31.6606 22.3996 30.7618 24.545C29.8631 26.6905 28.3479 28.521 26.4081 29.8047C24.4683 31.0884 22.1912 31.7676 19.8651 31.7563H19.8324Z" fill="#1AA3E9"/>
<path d="M26.604 17.7801C26.5827 17.7138 26.5454 17.6538 26.4955 17.6054C26.4456 17.5569 26.3846 17.5214 26.3178 17.502C26.2499 17.4854 26.179 17.4865 26.1117 17.5051C26.0444 17.5237 25.983 17.5593 25.9334 17.6083L21.6725 21.8774C20.8841 21.4628 20.1775 20.9086 19.587 20.2417C18.9177 19.6536 18.3631 18.9465 17.9514 18.1563L22.1877 13.9035C22.2368 13.8539 22.2723 13.7925 22.2909 13.7252C22.3095 13.6579 22.3106 13.587 22.294 13.5192C22.2775 13.451 22.243 13.3884 22.1941 13.3381C22.1452 13.2877 22.0837 13.2514 22.016 13.2329C21.4032 13.0496 20.7664 12.9586 20.1268 12.963C18.3351 12.9674 16.6181 13.6816 15.352 14.9493C14.0858 16.217 13.3737 17.9348 13.3715 19.7265C13.3713 20.631 13.552 21.5263 13.9031 22.3599L9.93665 26.3264C10.8466 27.7488 12.0515 28.9592 13.4697 29.8757L17.4443 25.9011C18.2872 26.261 19.1939 26.4474 20.1104 26.449C21.1604 26.4471 22.1956 26.2008 23.1339 25.7295C24.0721 25.2583 24.8878 24.575 25.5163 23.7339C26.1448 22.8927 26.5688 21.9168 26.7547 20.8834C26.9407 19.85 26.8835 18.7875 26.5876 17.7801H26.604Z" fill="#76C8F2"/>
</g>
<defs>
<clipPath id="clip0_1358_17106">
<rect width="39.7301" height="40" fill="white"/>
</clipPath>
</defs>
</svg>
