<svg width="33" height="40" viewBox="0 0 33 40" fill="none" xmlns="http://www.w3.org/2000/svg">
<g clip-path="url(#clip0_1359_17112)">
<path d="M14.7907 1.02321L2.32557 6.60461C1.02324 7.16275 0.186035 8.46507 0.186035 9.86042V18.2325C0.186035 28.093 7.06975 37.3953 16.186 39.6279C25.3953 37.3953 32.186 28.093 32.186 18.2325V9.86042C32.186 8.46507 31.3488 7.16275 30.0465 6.60461L17.5814 1.02321C16.8372 0.651117 15.7209 0.651117 14.7907 1.02321ZM16.2791 20H28.7442C27.8139 27.3488 22.8837 33.8604 16.2791 35.9069V20H3.81394V9.86042L16.2791 4.27902V20Z" fill="#1AA3E9"/>
<path d="M3.81396 20.0002C4.7442 27.3491 9.67443 33.8607 16.2791 35.9072V20.0002H3.81396ZM16.2791 4.2793V20.0002H28.7442V9.86069L16.2791 4.2793Z" fill="#76C8F2"/>
</g>
<defs>
<clipPath id="clip0_1359_17112">
<rect width="32.5581" height="40" fill="white"/>
</clipPath>
</defs>
</svg>
