<svg width="257" height="49" viewBox="0 0 257 49" fill="none" xmlns="http://www.w3.org/2000/svg">
<g clip-path="url(#clip0_1347_17067)">
<path d="M67.4223 35.1472L67.3477 30.4797C67.3477 29.6541 66.7458 27.7676 65.0204 27.4121H59.8613V35.1472H55.4761V12.8307H64.3956C65.343 12.8185 66.2834 12.9947 67.1621 13.3491C68.0408 13.7035 68.8405 14.2289 69.5146 14.8949C70.4522 15.7798 71.1419 16.8949 71.515 18.1292C71.8881 19.3635 71.9316 20.6741 71.6412 21.9304C71.4846 22.7129 71.1425 23.4463 70.6438 24.0692C70.2847 24.4973 69.8444 24.8501 69.3483 25.107C70.0609 25.3001 70.6905 25.7214 71.1409 26.3066C71.5912 26.8917 71.8375 27.6083 71.8419 28.3467C71.8419 30.6097 71.8419 32.8765 71.8419 35.1472H67.4223ZM59.8728 16.9476V23.5417H64.3956C66.1153 23.5761 67.4738 21.919 67.4223 20.2275C67.4738 18.5073 66.0981 16.9132 64.3956 16.9476H59.8728Z" fill="#1AA3E9"/>
<path d="M78.1016 17.4399C77.4296 17.4399 76.7851 17.1729 76.31 16.6976C75.8348 16.2223 75.5679 15.5777 75.5679 14.9055C75.5679 14.2333 75.8348 13.5887 76.31 13.1134C76.7851 12.6381 77.4296 12.3711 78.1016 12.3711C78.7735 12.3711 79.418 12.6381 79.8931 13.1134C80.3683 13.5887 80.6352 14.2333 80.6352 14.9055C80.6352 15.5777 80.3683 16.2223 79.8931 16.6976C79.418 17.1729 78.7735 17.4399 78.1016 17.4399V17.4399Z" fill="#1AA3E9"/>
<path d="M80.1707 19.2295H76.0606V35.1641H80.1707V19.2295Z" fill="#1AA3E9"/>
<path d="M96.1469 12.8301H100.257V35.1466H96.1469V33.2429C95.5342 34.0136 94.7465 34.6269 93.8492 35.0318C92.9519 35.4367 91.9709 35.6215 90.9878 35.5709C86.5854 35.6454 83.0944 31.5571 83.2148 27.1535C83.0887 22.7613 86.5854 18.6615 90.9878 18.736C91.9709 18.6854 92.9519 18.8702 93.8492 19.2751C94.7465 19.68 95.5342 20.2933 96.1469 21.064V12.8301ZM88.5745 30.4104C91.3604 33.1282 96.2787 31.2704 96.1469 27.1764C96.1755 26.5868 96.0821 25.9975 95.8726 25.4457C95.663 24.8938 95.3418 24.3911 94.9291 23.9691C94.5164 23.5471 94.021 23.2149 93.474 22.9933C92.927 22.7716 92.3402 22.6653 91.7502 22.681C87.6459 22.5778 85.8975 27.6466 88.5745 30.4104Z" fill="#1AA3E9"/>
<path d="M107.686 28.8679C108.237 30.8633 109.735 31.861 112.18 31.861C112.859 31.9049 113.539 31.7826 114.16 31.5049C114.781 31.2272 115.326 30.8023 115.746 30.267L119.059 32.1821C117.488 34.4528 115.175 35.5996 112.117 35.6225C107.096 35.7257 103.335 32.142 103.387 27.2051C103.349 26.09 103.541 24.9792 103.951 23.9413C104.36 22.9035 104.978 21.9608 105.766 21.1716C106.555 20.3825 107.497 19.7637 108.534 19.3536C109.571 18.9435 110.682 18.7509 111.796 18.7876C117.139 18.6557 120.733 23.8163 119.701 28.8966L107.686 28.8679ZM107.623 25.6798H115.746C114.995 21.3106 108.386 21.4539 107.623 25.6798V25.6798Z" fill="#1AA3E9"/>
<path d="M127.244 21.9472C128.013 19.8486 130.174 18.7133 132.449 18.7592V23.4381C130.111 23.1055 127.118 24.2924 127.244 27.5092V35.1468H123.134V19.2064H127.244V21.9472Z" fill="#1AA3E9"/>
<path d="M139.403 23.7537C139.403 25.2159 143.479 25.5943 144.728 26.2537C148.087 27.4349 148.666 32.2629 145.795 34.2812C144.448 35.2035 142.84 35.6678 141.209 35.6058C137.937 35.6058 135.708 34.3405 134.519 31.8099L138.085 29.803C138.555 31.1868 139.596 31.8768 141.209 31.873C142.676 31.873 143.41 31.42 143.41 30.5025C143.41 30.0782 143.129 29.7342 142.562 29.4647C139.661 28.1975 135.218 28.1516 135.19 23.8397C135.144 20.514 138.096 18.748 141.243 18.7709C142.466 18.7325 143.677 19.0276 144.745 19.6245C145.813 20.2214 146.699 21.0978 147.308 22.1597L143.805 24.0691C143.599 23.5686 143.244 23.1441 142.787 22.8536C142.33 22.5631 141.795 22.4209 141.255 22.4464C140.366 22.4406 139.414 22.8191 139.403 23.7537Z" fill="#1AA3E9"/>
<path d="M171.596 23.5929C175.201 25.4393 175.459 30.8177 172.519 33.3407C171.165 34.5568 169.396 35.2074 167.577 35.1583H158.113V12.8475H166.907C168.685 12.797 170.415 13.4312 171.739 14.6193C174.353 16.8269 174.399 21.5058 171.596 23.5929ZM166.907 16.9588H162.51V21.8728H166.907C167.227 21.8818 167.545 21.8237 167.841 21.7022C168.137 21.5808 168.405 21.3986 168.626 21.1675C170.065 19.7283 169.091 16.8613 166.907 16.9588ZM167.577 31.0471C169.905 31.156 171.017 28.0998 169.429 26.5402C169.189 26.2941 168.9 26.1003 168.582 25.971C168.263 25.8417 167.921 25.7798 167.577 25.789H162.51V31.0471H167.577Z" fill="#1AA3E9"/>
<path d="M188.838 19.2236H192.948V35.164H188.838V33.375C187.153 36.1732 181.959 36.3567 179.77 33.8567C178.623 32.6869 178.05 31.0719 178.05 29.0115V19.2236H182.16V28.5012C182.131 30.531 183.341 31.7867 185.313 31.781C187.64 31.781 188.85 30.2385 188.821 27.8303L188.838 19.2236Z" fill="#1AA3E9"/>
<path d="M209.016 12.8477H213.126V35.1642H209.016V33.2834C208.403 34.0541 207.616 34.6674 206.718 35.0723C205.821 35.4772 204.84 35.662 203.857 35.6114C199.455 35.686 195.964 31.5977 196.084 27.194C195.958 22.8018 199.455 18.6963 203.857 18.7766C204.84 18.7259 205.821 18.9108 206.718 19.3157C207.616 19.7206 208.403 20.3338 209.016 21.1045V12.8477ZM201.444 30.4279C204.23 33.1458 209.148 31.288 209.016 27.194C209.045 26.6053 208.951 26.0171 208.743 25.466C208.534 24.9149 208.214 24.4128 207.802 23.991C207.391 23.5692 206.897 23.2367 206.351 23.0143C205.805 22.792 205.22 22.6845 204.631 22.6986C200.515 22.5954 198.767 27.6642 201.444 30.4279Z" fill="#1AA3E9"/>
<path d="M229.216 12.8477H233.327V35.1642H229.216V33.2834C228.604 34.0548 227.817 34.6687 226.919 35.0736C226.022 35.4786 225.041 35.663 224.057 35.6114C219.661 35.686 216.164 31.5977 216.284 27.194C216.164 22.8018 219.661 18.6963 224.063 18.7766C225.046 18.7245 226.028 18.9087 226.925 19.3137C227.823 19.7187 228.61 20.3328 229.222 21.1045L229.216 12.8477ZM221.65 30.4279C224.436 33.1458 229.354 31.288 229.216 27.194C229.246 26.6041 229.153 26.0145 228.944 25.4623C228.735 24.91 228.414 24.407 228.001 23.9848C227.588 23.5626 227.092 23.2304 226.545 23.0091C225.997 22.7877 225.41 22.682 224.82 22.6986C220.721 22.5954 218.961 27.6642 221.65 30.4279Z" fill="#1AA3E9"/>
<path d="M248.603 19.2236H253L247.193 35.1869C245.628 39.4071 243.226 41.7408 238.79 41.5401V37.7099C239.683 37.7245 240.564 37.4932 241.335 37.0412C242.107 36.5892 242.739 35.9339 243.163 35.1468C240.92 29.8372 238.675 24.5294 236.428 19.2236H240.922L245.078 29.9346L248.603 19.2236Z" fill="#1AA3E9"/>
<path d="M12.0939 33.3291C11.8294 33.3273 11.5685 33.3901 11.3338 33.5121C11.0992 33.6342 10.8979 33.8118 10.7476 34.0294C10.5973 34.2471 10.5024 34.4982 10.4713 34.7609C10.4402 35.0236 10.4737 35.2899 10.5691 35.5367C11.4836 38.0286 13.1407 40.1796 15.3166 41.6991C17.4925 43.2186 20.0822 44.0334 22.7359 44.0334C25.3896 44.0334 27.9793 43.2186 30.1552 41.6991C32.3311 40.1796 33.9882 38.0286 34.9027 35.5367C34.9934 35.292 35.0235 35.0289 34.9905 34.77C34.9574 34.511 34.8622 34.264 34.7129 34.0499C34.5636 33.8357 34.3648 33.661 34.1333 33.5405C33.9018 33.4199 33.6446 33.3573 33.3837 33.3578L12.0939 33.3291Z" fill="#1AA3E9"/>
<path d="M14.4842 5.92676H8.05833C7.7155 5.94912 7.39402 6.10111 7.15912 6.35189C6.92423 6.60267 6.79352 6.93345 6.79352 7.2771C6.79352 7.62076 6.92423 7.95154 7.15912 8.20232C7.39402 8.4531 7.7155 8.60509 8.05833 8.62745H14.4842C14.8271 8.60509 15.1486 8.4531 15.3835 8.20232C15.6183 7.95154 15.7491 7.62076 15.7491 7.2771C15.7491 6.93345 15.6183 6.60267 15.3835 6.35189C15.1486 6.10111 14.8271 5.94912 14.4842 5.92676V5.92676Z" fill="#1AA3E9"/>
<path d="M39.8094 5.6055C39.7776 5.82744 39.6843 6.03603 39.54 6.20756C39.4425 6.32224 39.3336 6.43118 39.2304 6.54013C38.2094 7.55936 36.9084 8.25193 35.4929 8.52981C35.0715 8.61085 34.6438 8.65498 34.2146 8.66169C33.7855 8.65498 33.3578 8.61085 32.9363 8.52981C31.5287 8.24865 30.236 7.55623 29.2218 6.54013C29.1129 6.43118 29.004 6.32224 28.9008 6.20756C28.7577 6.04416 28.659 5.84671 28.6142 5.63417C28.5864 5.44299 28.5961 5.24822 28.6428 5.06077C28.7057 4.84558 28.8198 4.64883 28.9753 4.48738L29.0785 4.37843C29.2057 4.24609 29.3605 4.14353 29.532 4.0781C29.7034 4.01267 29.8872 3.986 30.0702 3.99999V3.99999C30.4078 4.02989 30.7204 4.19035 30.9415 4.44724C31.1965 4.73003 31.4853 4.98038 31.8013 5.19265C32.5181 5.66794 33.3549 5.93036 34.2146 5.94953C35.0682 5.92531 35.8981 5.66317 36.6107 5.19265C36.9252 4.98047 37.2121 4.73009 37.4649 4.44724C37.6934 4.18749 38.0142 4.02706 38.3591 3.99999V3.99999C38.5399 3.98386 38.722 4.00788 38.8925 4.07033C39.0629 4.13277 39.2175 4.23211 39.3451 4.36123L39.4482 4.47017C39.6075 4.6297 39.7239 4.82695 39.7864 5.04357C39.8351 5.22694 39.8429 5.41877 39.8094 5.6055Z" fill="#1AA3E9"/>
<path d="M28.1561 18.2485H17.3277C16.9525 18.2281 16.5844 18.3573 16.304 18.6076C16.0236 18.858 15.8538 19.2092 15.8316 19.5845C15.8538 19.9598 16.0236 20.311 16.304 20.5614C16.5844 20.8118 16.9525 20.9409 17.3277 20.9205H28.1561C28.5323 20.9425 28.9019 20.814 29.1835 20.5635C29.4651 20.313 29.6358 19.9609 29.6579 19.5845C29.6358 19.2082 29.4651 18.856 29.1835 18.6055C28.9019 18.355 28.5323 18.2266 28.1561 18.2485V18.2485Z" fill="#1AA3E9"/>
<path d="M11.2628 12.4004C9.58356 12.406 7.95808 12.9934 6.66306 14.0628C5.36805 15.1322 4.48352 16.6175 4.16003 18.2658C3.83654 19.9141 4.09407 21.6236 4.88879 23.1034C5.68352 24.5832 6.96632 25.7417 8.51888 26.3819C10.0714 27.0221 11.7978 27.1043 13.4042 26.6146C15.0105 26.1249 16.3976 25.0935 17.3293 23.696C18.261 22.2985 18.6798 20.6212 18.5143 18.9496C18.3489 17.278 17.6095 15.7154 16.4219 14.5277C15.7445 13.8507 14.94 13.3142 14.0546 12.9491C13.1692 12.584 12.2205 12.3976 11.2628 12.4004ZM11.2628 24.2181C10.5909 24.211 9.92864 24.0563 9.32304 23.7649C8.71745 23.4734 8.18329 23.0525 7.75837 22.5317C7.33344 22.0109 7.02813 21.4031 6.86405 20.7512C6.69997 20.0993 6.68112 19.4193 6.80884 18.7594C6.92514 18.127 7.17388 17.5264 7.5387 16.997C7.90353 16.4675 8.3762 16.0213 8.92567 15.6876C9.47513 15.3539 10.089 15.1402 10.7268 15.0607C11.3647 14.9811 12.0122 15.0374 12.6268 15.2259C13.2413 15.4144 13.8091 15.7308 14.2927 16.1544C14.7764 16.5779 15.165 17.099 15.433 17.6835C15.701 18.2679 15.8424 18.9025 15.8478 19.5454C15.8533 20.1884 15.7227 20.8253 15.4646 21.4142C15.2423 21.9762 14.9111 22.4887 14.4901 22.9222C13.6308 23.7717 12.471 24.2477 11.2628 24.2468V24.2181Z" fill="#1AA3E9"/>
<path d="M34.215 12.4346C32.5357 12.4401 30.9102 13.0276 29.6152 14.097C28.3202 15.1664 27.4357 16.6516 27.1122 18.3C26.7887 19.9483 27.0462 21.6578 27.8409 23.1376C28.6357 24.6173 29.9185 25.7759 31.471 26.4161C33.0236 27.0562 34.75 27.1385 36.3563 26.6488C37.9627 26.1591 39.3497 25.1277 40.2814 23.7302C41.2131 22.3327 41.6319 20.6554 41.4665 18.9837C41.3011 17.3121 40.5616 15.7495 39.3741 14.5619C38.004 13.1971 36.1485 12.432 34.215 12.4346V12.4346ZM34.215 24.2522C33.1527 24.2554 32.1222 23.8895 31.2996 23.2171C30.477 22.5446 29.9133 21.6074 29.7048 20.5654C29.4963 19.5234 29.6559 18.4413 30.1564 17.504C30.6569 16.5667 31.4672 15.8322 32.4489 15.4261C33.4306 15.02 34.5228 14.9675 35.539 15.2774C36.5552 15.5873 37.4322 16.2406 38.0204 17.1255C38.6085 18.0104 38.8713 19.0722 38.7637 20.1294C38.6562 21.1866 38.1851 22.1736 37.4308 22.922C36.5752 23.7708 35.42 24.2487 34.215 24.2522V24.2522Z" fill="#1AA3E9"/>
</g>
<defs>
<clipPath id="clip0_1347_17067">
<rect width="249" height="40" fill="white" transform="translate(4 4)"/>
</clipPath>
</defs>
</svg>
