<svg width="249" height="40" viewBox="0 0 249 40" fill="none" xmlns="http://www.w3.org/2000/svg">
<g clip-path="url(#clip0_1315_15804)">
<path d="M63.4223 31.1472L63.3477 26.4797C63.3477 25.6541 62.7458 23.7676 61.0204 23.4121H55.8613V31.1472H51.4761V8.83067H60.3956C61.343 8.81852 62.2834 8.99474 63.1621 9.3491C64.0408 9.70345 64.8405 10.2289 65.5146 10.8949C66.4522 11.7798 67.1419 12.8949 67.515 14.1292C67.8881 15.3635 67.9316 16.6741 67.6412 17.9304C67.4846 18.7129 67.1425 19.4463 66.6438 20.0692C66.2847 20.4973 65.8444 20.8501 65.3483 21.107C66.0609 21.3001 66.6905 21.7214 67.1409 22.3066C67.5912 22.8917 67.8375 23.6083 67.8419 24.3467C67.8419 26.6097 67.8419 28.8765 67.8419 31.1472H63.4223ZM55.8728 12.9476V19.5417H60.3956C62.1153 19.5761 63.4738 17.919 63.4223 16.2275C63.4738 14.5073 62.0981 12.9132 60.3956 12.9476H55.8728Z" fill="#1AA3E9"/>
<path d="M74.1016 13.4399C73.4296 13.4399 72.7851 13.1729 72.31 12.6976C71.8348 12.2223 71.5679 11.5777 71.5679 10.9055C71.5679 10.2333 71.8348 9.5887 72.31 9.1134C72.7851 8.63811 73.4296 8.37109 74.1016 8.37109C74.7735 8.37109 75.418 8.63811 75.8931 9.1134C76.3683 9.5887 76.6352 10.2333 76.6352 10.9055C76.6352 11.5777 76.3683 12.2223 75.8931 12.6976C75.418 13.1729 74.7735 13.4399 74.1016 13.4399V13.4399Z" fill="#1AA3E9"/>
<path d="M76.1707 15.2295H72.0606V31.1641H76.1707V15.2295Z" fill="#1AA3E9"/>
<path d="M92.1469 8.83008H96.257V31.1466H92.1469V29.2429C91.5342 30.0136 90.7465 30.6269 89.8492 31.0318C88.9519 31.4367 87.9709 31.6215 86.9878 31.5709C82.5854 31.6454 79.0944 27.5571 79.2148 23.1535C79.0887 18.7613 82.5854 14.6615 86.9878 14.736C87.9709 14.6854 88.9519 14.8702 89.8492 15.2751C90.7465 15.68 91.5342 16.2933 92.1469 17.064V8.83008ZM84.5745 26.4104C87.3604 29.1282 92.2787 27.2704 92.1469 23.1764C92.1755 22.5868 92.0821 21.9975 91.8726 21.4457C91.663 20.8938 91.3418 20.3911 90.9291 19.9691C90.5164 19.5471 90.021 19.2149 89.474 18.9933C88.927 18.7716 88.3402 18.6653 87.7502 18.681C83.6459 18.5778 81.8975 23.6466 84.5745 26.4104Z" fill="#1AA3E9"/>
<path d="M103.686 24.8679C104.237 26.8633 105.735 27.861 108.18 27.861C108.859 27.9049 109.539 27.7826 110.16 27.5049C110.781 27.2272 111.326 26.8023 111.746 26.267L115.059 28.1821C113.488 30.4528 111.175 31.5996 108.117 31.6225C103.096 31.7257 99.3354 28.142 99.387 23.2051C99.3495 22.09 99.5413 20.9792 99.9506 19.9413C100.36 18.9035 100.978 17.9608 101.766 17.1716C102.555 16.3825 103.497 15.7637 104.534 15.3536C105.571 14.9435 106.682 14.7509 107.796 14.7876C113.139 14.6557 116.733 19.8163 115.701 24.8966L103.686 24.8679ZM103.623 21.6798H111.746C110.995 17.3106 104.386 17.4539 103.623 21.6798V21.6798Z" fill="#1AA3E9"/>
<path d="M123.244 17.9472C124.013 15.8486 126.174 14.7133 128.449 14.7592V19.4381C126.111 19.1055 123.118 20.2924 123.244 23.5092V31.1468H119.134V15.2064H123.244V17.9472Z" fill="#1AA3E9"/>
<path d="M135.403 19.7537C135.403 21.2159 139.479 21.5943 140.728 22.2537C144.087 23.4349 144.666 28.2629 141.795 30.2812C140.448 31.2035 138.84 31.6678 137.209 31.6058C133.937 31.6058 131.708 30.3405 130.519 27.8099L134.085 25.803C134.555 27.1868 135.596 27.8768 137.209 27.873C138.676 27.873 139.41 27.42 139.41 26.5025C139.41 26.0782 139.129 25.7342 138.562 25.4647C135.661 24.1975 131.218 24.1516 131.19 19.8397C131.144 16.514 134.096 14.748 137.243 14.7709C138.466 14.7325 139.677 15.0276 140.745 15.6245C141.813 16.2214 142.699 17.0978 143.308 18.1597L139.805 20.0691C139.599 19.5686 139.244 19.1441 138.787 18.8536C138.33 18.5631 137.795 18.4209 137.255 18.4464C136.366 18.4406 135.414 18.8191 135.403 19.7537Z" fill="#1AA3E9"/>
<path d="M167.596 19.5929C171.201 21.4393 171.459 26.8177 168.519 29.3407C167.165 30.5568 165.396 31.2074 163.577 31.1583H154.113V8.84753H162.907C164.685 8.79696 166.415 9.43119 167.739 10.6193C170.353 12.8269 170.399 17.5058 167.596 19.5929ZM162.907 12.9588H158.51V17.8728H162.907C163.227 17.8818 163.545 17.8237 163.841 17.7022C164.137 17.5808 164.405 17.3986 164.626 17.1675C166.065 15.7283 165.091 12.8613 162.907 12.9588ZM163.577 27.0471C165.905 27.156 167.017 24.0998 165.429 22.5402C165.189 22.2941 164.9 22.1003 164.582 21.971C164.263 21.8417 163.921 21.7798 163.577 21.789H158.51V27.0471H163.577Z" fill="#1AA3E9"/>
<path d="M184.838 15.2236H188.948V31.164H184.838V29.375C183.153 32.1732 177.959 32.3567 175.77 29.8567C174.623 28.6869 174.05 27.0719 174.05 25.0115V15.2236H178.16V24.5012C178.131 26.531 179.341 27.7867 181.313 27.781C183.64 27.781 184.85 26.2385 184.821 23.8303L184.838 15.2236Z" fill="#1AA3E9"/>
<path d="M205.016 8.84766H209.126V31.1642H205.016V29.2834C204.403 30.0541 203.616 30.6674 202.718 31.0723C201.821 31.4772 200.84 31.662 199.857 31.6114C195.455 31.686 191.964 27.5977 192.084 23.194C191.958 18.8018 195.455 14.6963 199.857 14.7766C200.84 14.7259 201.821 14.9108 202.718 15.3157C203.616 15.7206 204.403 16.3338 205.016 17.1045V8.84766ZM197.444 26.4279C200.23 29.1458 205.148 27.288 205.016 23.194C205.045 22.6053 204.951 22.0171 204.743 21.466C204.534 20.9149 204.214 20.4128 203.802 19.991C203.391 19.5692 202.897 19.2367 202.351 19.0143C201.805 18.792 201.22 18.6845 200.631 18.6986C196.515 18.5954 194.767 23.6642 197.444 26.4279Z" fill="#1AA3E9"/>
<path d="M225.216 8.84766H229.327V31.1642H225.216V29.2834C224.604 30.0548 223.817 30.6687 222.919 31.0736C222.022 31.4786 221.041 31.663 220.057 31.6114C215.661 31.686 212.164 27.5977 212.284 23.194C212.164 18.8018 215.661 14.6963 220.063 14.7766C221.046 14.7245 222.028 14.9087 222.925 15.3137C223.823 15.7187 224.61 16.3328 225.222 17.1045L225.216 8.84766ZM217.65 26.4279C220.436 29.1458 225.354 27.288 225.216 23.194C225.246 22.6041 225.153 22.0145 224.944 21.4623C224.735 20.91 224.414 20.407 224.001 19.9848C223.588 19.5626 223.092 19.2304 222.545 19.0091C221.997 18.7877 221.41 18.682 220.82 18.6986C216.721 18.5954 214.961 23.6642 217.65 26.4279Z" fill="#1AA3E9"/>
<path d="M244.603 15.2236H249L243.193 31.1869C241.628 35.4071 239.226 37.7408 234.79 37.5401V33.7099C235.683 33.7245 236.564 33.4932 237.335 33.0412C238.107 32.5892 238.739 31.9339 239.163 31.1468C236.92 25.8372 234.675 20.5294 232.428 15.2236H236.922L241.078 25.9346L244.603 15.2236Z" fill="#1AA3E9"/>
<path d="M8.09387 29.3291C7.8294 29.3273 7.56848 29.3901 7.33383 29.5121C7.09919 29.6342 6.89793 29.8118 6.7476 30.0294C6.59726 30.2471 6.5024 30.4982 6.47129 30.7609C6.44017 31.0236 6.47374 31.2899 6.56907 31.5367C7.48357 34.0286 9.14072 36.1796 11.3166 37.6991C13.4925 39.2186 16.0822 40.0334 18.7359 40.0334C21.3896 40.0334 23.9793 39.2186 26.1552 37.6991C28.3311 36.1796 29.9882 34.0286 30.9027 31.5367C30.9934 31.292 31.0235 31.0289 30.9905 30.77C30.9574 30.511 30.8622 30.264 30.7129 30.0499C30.5636 29.8357 30.3648 29.661 30.1333 29.5405C29.9018 29.4199 29.6446 29.3573 29.3837 29.3578L8.09387 29.3291Z" fill="#1AA3E9"/>
<path d="M10.4842 1.92676H4.05833C3.7155 1.94912 3.39402 2.10111 3.15912 2.35189C2.92423 2.60267 2.79352 2.93345 2.79352 3.2771C2.79352 3.62076 2.92423 3.95154 3.15912 4.20232C3.39402 4.4531 3.7155 4.60509 4.05833 4.62745H10.4842C10.8271 4.60509 11.1486 4.4531 11.3835 4.20232C11.6183 3.95154 11.7491 3.62076 11.7491 3.2771C11.7491 2.93345 11.6183 2.60267 11.3835 2.35189C11.1486 2.10111 10.8271 1.94912 10.4842 1.92676V1.92676Z" fill="#1AA3E9"/>
<path d="M35.8094 1.6055C35.7776 1.82744 35.6843 2.03603 35.54 2.20756C35.4425 2.32224 35.3336 2.43118 35.2304 2.54013C34.2094 3.55936 32.9084 4.25193 31.4929 4.52981C31.0715 4.61085 30.6438 4.65498 30.2146 4.66169C29.7855 4.65498 29.3578 4.61085 28.9363 4.52981C27.5287 4.24865 26.236 3.55623 25.2218 2.54013C25.1129 2.43118 25.004 2.32224 24.9008 2.20756C24.7577 2.04416 24.659 1.84671 24.6142 1.63417C24.5864 1.44299 24.5961 1.24822 24.6428 1.06077C24.7057 0.845579 24.8198 0.648835 24.9753 0.487377L25.0785 0.378432C25.2057 0.246088 25.3605 0.143525 25.532 0.0780973C25.7034 0.0126693 25.8872 -0.0140035 26.0702 -8.80861e-06V-8.80861e-06C26.4078 0.0298884 26.7204 0.190348 26.9415 0.447239C27.1965 0.730031 27.4853 0.980382 27.8013 1.19265C28.5181 1.66794 29.3549 1.93036 30.2146 1.94953C31.0682 1.92531 31.8981 1.66317 32.6107 1.19265C32.9252 0.980468 33.2121 0.730085 33.4649 0.447239C33.6934 0.187487 34.0142 0.0270555 34.3591 -8.80861e-06V-8.80861e-06C34.5399 -0.0161378 34.722 0.00787906 34.8925 0.0703256C35.0629 0.132772 35.2175 0.232106 35.3451 0.36123L35.4482 0.470175C35.6075 0.629697 35.7239 0.826953 35.7864 1.04357C35.8351 1.22694 35.8429 1.41877 35.8094 1.6055Z" fill="#1AA3E9"/>
<path d="M24.1561 14.2485H13.3277C12.9525 14.2281 12.5844 14.3573 12.304 14.6076C12.0236 14.858 11.8538 15.2092 11.8316 15.5845C11.8538 15.9598 12.0236 16.311 12.304 16.5614C12.5844 16.8118 12.9525 16.9409 13.3277 16.9205H24.1561C24.5323 16.9425 24.9019 16.814 25.1835 16.5635C25.4651 16.313 25.6358 15.9609 25.6579 15.5845C25.6358 15.2082 25.4651 14.856 25.1835 14.6055C24.9019 14.355 24.5323 14.2266 24.1561 14.2485V14.2485Z" fill="#1AA3E9"/>
<path d="M7.26285 8.40042C5.58356 8.40597 3.95808 8.99344 2.66306 10.0628C1.36805 11.1322 0.483522 12.6175 0.160029 14.2658C-0.163464 15.9141 0.094068 17.6236 0.888793 19.1034C1.68352 20.5832 2.96632 21.7417 4.51888 22.3819C6.07144 23.0221 7.79781 23.1043 9.40416 22.6146C11.0105 22.1249 12.3976 21.0935 13.3293 19.696C14.261 18.2985 14.6798 16.6212 14.5143 14.9496C14.3489 13.278 13.6095 11.7154 12.4219 10.5277C11.7445 9.85066 10.94 9.31418 10.0546 8.94911C9.16924 8.58404 8.22048 8.39757 7.26285 8.40042ZM7.26285 20.2181C6.59086 20.211 5.92864 20.0563 5.32304 19.7649C4.71745 19.4734 4.18329 19.0525 3.75837 18.5317C3.33344 18.0109 3.02813 17.4031 2.86405 16.7512C2.69997 16.0993 2.68112 15.4193 2.80884 14.7594C2.92514 14.127 3.17388 13.5264 3.5387 12.997C3.90353 12.4675 4.3762 12.0213 4.92567 11.6876C5.47513 11.3539 6.08896 11.1402 6.72683 11.0607C7.3647 10.9811 8.01219 11.0374 8.62676 11.2259C9.24134 11.4144 9.8091 11.7308 10.2927 12.1544C10.7764 12.5779 11.165 13.099 11.433 13.6835C11.701 14.2679 11.8424 14.9025 11.8478 15.5454C11.8533 16.1884 11.7227 16.8253 11.4646 17.4142C11.2423 17.9762 10.9111 18.4887 10.4901 18.9222C9.63081 19.7717 8.47104 20.2477 7.26285 20.2468V20.2181Z" fill="#1AA3E9"/>
<path d="M30.215 8.43458C28.5357 8.44012 26.9102 9.02759 25.6152 10.097C24.3202 11.1664 23.4357 12.6516 23.1122 14.3C22.7887 15.9483 23.0462 17.6578 23.8409 19.1376C24.6357 20.6173 25.9185 21.7759 27.471 22.4161C29.0236 23.0562 30.75 23.1385 32.3563 22.6488C33.9627 22.1591 35.3497 21.1277 36.2814 19.7302C37.2131 18.3327 37.6319 16.6554 37.4665 14.9837C37.3011 13.3121 36.5616 11.7495 35.3741 10.5619C34.004 9.19709 32.1485 8.43198 30.215 8.43458V8.43458ZM30.215 20.2522C29.1527 20.2554 28.1222 19.8895 27.2996 19.2171C26.477 18.5446 25.9133 17.6074 25.7048 16.5654C25.4963 15.5234 25.6559 14.4413 26.1564 13.504C26.6569 12.5667 27.4672 11.8322 28.4489 11.4261C29.4306 11.02 30.5228 10.9675 31.539 11.2774C32.5552 11.5873 33.4322 12.2406 34.0204 13.1255C34.6085 14.0104 34.8713 15.0722 34.7637 16.1294C34.6562 17.1866 34.1851 18.1736 33.4308 18.922C32.5752 19.7708 31.42 20.2487 30.215 20.2522V20.2522Z" fill="#1AA3E9"/>
</g>
<defs>
<clipPath id="clip0_1315_15804">
<rect width="249" height="40" fill="white"/>
</clipPath>
</defs>
</svg>
