<svg width="301" height="49" viewBox="0 0 301 49" fill="none" xmlns="http://www.w3.org/2000/svg">
<g clip-path="url(#clip0_1347_17067)">
<path d="M72.3941 37.443L72.3043 31.8191C72.3043 30.8242 71.5791 28.5512 69.5001 28.1229H63.2838V37.443H58V10.5534H68.7472C69.8887 10.5388 71.0218 10.7511 72.0806 11.1781C73.1394 11.6051 74.1029 12.2382 74.9151 13.0407C76.045 14.1069 76.876 15.4505 77.3255 16.9378C77.7751 18.425 77.8275 20.0041 77.4776 21.5179C77.2888 22.4607 76.8767 23.3445 76.2758 24.0949C75.8431 24.6108 75.3126 25.0358 74.7148 25.3455C75.5734 25.5781 76.3321 26.0858 76.8747 26.7908C77.4174 27.4958 77.714 28.3593 77.7194 29.249C77.7194 31.9757 77.7194 34.7071 77.7194 37.443H72.3941ZM63.2976 15.5141V23.4593H68.7472C70.8193 23.5008 72.4563 21.5041 72.3941 19.466C72.4563 17.3933 70.7986 15.4726 68.7472 15.5141H63.2976Z" fill="#1AA3E9"/>
<path d="M85.2618 16.1075C84.4521 16.1075 83.6756 15.7858 83.1031 15.2131C82.5305 14.6404 82.2089 13.8637 82.2089 13.0537C82.2089 12.2438 82.5305 11.4671 83.1031 10.8944C83.6756 10.3217 84.4521 10 85.2618 10C86.0714 10 86.848 10.3217 87.4205 10.8944C87.993 11.4671 88.3146 12.2438 88.3146 13.0537C88.3146 13.8637 87.993 14.6404 87.4205 15.2131C86.848 15.7858 86.0714 16.1075 85.2618 16.1075V16.1075Z" fill="#1AA3E9"/>
<path d="M87.7549 18.2646H82.8026V37.4646H87.7549V18.2646Z" fill="#1AA3E9"/>
<path d="M107.005 10.5527H111.957V37.4423H107.005V35.1485C106.267 36.0772 105.318 36.8161 104.236 37.304C103.155 37.7919 101.973 38.0146 100.789 37.9536C95.4841 38.0434 91.2778 33.1173 91.4228 27.8112C91.2708 22.519 95.4841 17.5791 100.789 17.6689C101.973 17.6079 103.155 17.8306 104.236 18.3185C105.318 18.8064 106.267 19.5453 107.005 20.474V10.5527ZM97.8808 31.7355C101.238 35.0104 107.164 32.7719 107.005 27.8389C107.039 27.1284 106.927 26.4184 106.674 25.7535C106.422 25.0885 106.035 24.4828 105.538 23.9744C105.04 23.4659 104.443 23.0656 103.784 22.7985C103.125 22.5315 102.418 22.4034 101.707 22.4223C96.7619 22.2979 94.6553 28.4054 97.8808 31.7355Z" fill="#1AA3E9"/>
<path d="M120.909 29.8768C121.572 32.2811 123.377 33.4833 126.324 33.4833C127.142 33.5361 127.961 33.3888 128.709 33.0542C129.458 32.7195 130.114 32.2076 130.62 31.5626L134.612 33.8702C132.72 36.6061 129.932 37.9879 126.248 38.0155C120.197 38.1399 115.666 33.8218 115.729 27.8732C115.683 26.5297 115.915 25.1912 116.408 23.9407C116.901 22.6902 117.645 21.5543 118.595 20.6035C119.545 19.6526 120.68 18.907 121.93 18.4129C123.18 17.9188 124.518 17.6866 125.861 17.7309C132.298 17.572 136.629 23.79 135.386 29.9114L120.909 29.8768ZM120.833 26.0354H130.62C129.715 20.7708 121.752 20.9436 120.833 26.0354V26.0354Z" fill="#1AA3E9"/>
<path d="M144.475 21.5383C145.4 19.0096 148.004 17.6417 150.746 17.6969V23.3346C147.928 22.9339 144.323 24.364 144.475 28.24V37.4427H139.523V18.2358H144.475V21.5383Z" fill="#1AA3E9"/>
<path d="M159.125 23.7139C159.125 25.4757 164.036 25.9317 165.542 26.7262C169.589 28.1495 170.287 33.9668 166.826 36.3987C165.203 37.5099 163.266 38.0695 161.301 37.9947C157.359 37.9947 154.672 36.4701 153.24 33.421L157.536 31.0028C158.103 32.6702 159.358 33.5016 161.301 33.497C163.069 33.497 163.953 32.9512 163.953 31.8457C163.953 31.3345 163.615 30.9199 162.931 30.5952C159.436 29.0683 154.083 29.0131 154.048 23.8175C153.993 19.8104 157.55 17.6824 161.342 17.7101C162.816 17.6638 164.274 18.0193 165.562 18.7386C166.849 19.4578 167.916 20.5137 168.65 21.7932L164.43 24.0939C164.181 23.4909 163.752 22.9794 163.202 22.6294C162.652 22.2794 162.007 22.108 161.356 22.1387C160.285 22.1318 159.139 22.5878 159.125 23.7139Z" fill="#1AA3E9"/>
<path d="M197.915 23.522C202.259 25.7467 202.57 32.2273 199.027 35.2672C197.395 36.7326 195.264 37.5165 193.073 37.4573H181.669V10.5747H192.265C194.407 10.5137 196.491 11.2779 198.087 12.7095C201.237 15.3695 201.292 21.0072 197.915 23.522ZM192.265 15.5284H186.967V21.4493H192.265C192.65 21.4602 193.034 21.3902 193.391 21.2439C193.747 21.0975 194.07 20.878 194.337 20.5995C196.07 18.8654 194.896 15.4109 192.265 15.5284ZM193.073 32.5036C195.877 32.6349 197.217 28.9524 195.304 27.0732C195.014 26.7766 194.667 26.5431 194.283 26.3874C193.899 26.2316 193.487 26.157 193.073 26.1681H186.967V32.5036H193.073Z" fill="#1AA3E9"/>
<path d="M218.69 18.2568H223.642V37.4637H218.69V35.3081C216.66 38.6796 210.402 38.9007 207.763 35.8884C206.382 34.479 205.691 32.533 205.691 30.0504V18.2568H210.644V29.4355C210.609 31.8813 212.066 33.3943 214.442 33.3874C217.247 33.3874 218.704 31.5289 218.669 28.6271L218.69 18.2568Z" fill="#1AA3E9"/>
<path d="M243.003 10.5742H247.955V37.4638H243.003V35.1976C242.265 36.1263 241.316 36.8652 240.234 37.3531C239.153 37.841 237.971 38.0637 236.787 38.0027C231.482 38.0925 227.276 33.1664 227.421 27.8604C227.269 22.5681 231.482 17.6213 236.787 17.7181C237.971 17.6571 239.153 17.8798 240.234 18.3676C241.316 18.8555 242.265 19.5945 243.003 20.5231V10.5742ZM233.879 31.757C237.236 35.0318 243.162 32.7933 243.003 27.8604C243.037 27.1511 242.925 26.4423 242.674 25.7783C242.422 25.1143 242.036 24.5093 241.54 24.001C241.045 23.4928 240.449 23.0922 239.792 22.8242C239.134 22.5563 238.429 22.4268 237.719 22.4438C232.76 22.3194 230.653 28.4269 233.879 31.757Z" fill="#1AA3E9"/>
<path d="M267.343 10.5742H272.295V37.4638H267.343V35.1976C266.605 36.1271 265.656 36.8667 264.575 37.3547C263.494 37.8426 262.311 38.0648 261.126 38.0027C255.829 38.0925 251.616 33.1664 251.761 27.8604C251.616 22.5681 255.829 17.6213 261.133 17.7181C262.318 17.6553 263.501 17.8773 264.582 18.3653C265.664 18.8533 266.613 19.5932 267.35 20.5231L267.343 10.5742ZM258.226 31.757C261.582 35.0318 267.509 32.7933 267.343 27.8604C267.378 27.1496 267.266 26.4392 267.014 25.7738C266.762 25.1083 266.375 24.5022 265.878 23.9936C265.38 23.4849 264.783 23.0846 264.123 22.8179C263.464 22.5512 262.756 22.4238 262.045 22.4438C257.107 22.3194 254.986 28.4269 258.226 31.757Z" fill="#1AA3E9"/>
<path d="M290.702 18.2568H296L289.003 37.4913C287.118 42.5763 284.224 45.3882 278.878 45.1464V40.5312C279.955 40.5489 281.016 40.2702 281.945 39.7256C282.875 39.1809 283.636 38.3913 284.148 37.4429C281.445 31.0453 278.74 24.6499 276.032 18.2568H281.447L286.455 31.1627L290.702 18.2568Z" fill="#1AA3E9"/>
<path d="M12.0939 33.3291C11.8294 33.3273 11.5685 33.3901 11.3338 33.5121C11.0992 33.6342 10.8979 33.8118 10.7476 34.0294C10.5973 34.2471 10.5024 34.4982 10.4713 34.7609C10.4402 35.0236 10.4737 35.2899 10.5691 35.5367C11.4836 38.0286 13.1407 40.1796 15.3166 41.6991C17.4925 43.2186 20.0822 44.0334 22.7359 44.0334C25.3896 44.0334 27.9793 43.2186 30.1552 41.6991C32.3311 40.1796 33.9882 38.0286 34.9027 35.5367C34.9934 35.292 35.0235 35.0289 34.9905 34.77C34.9574 34.511 34.8622 34.264 34.7129 34.0499C34.5636 33.8357 34.3648 33.661 34.1333 33.5405C33.9018 33.4199 33.6446 33.3573 33.3837 33.3578L12.0939 33.3291Z" fill="#1AA3E9"/>
<path d="M14.4842 5.92676H8.05833C7.7155 5.94912 7.39402 6.10111 7.15912 6.35189C6.92423 6.60267 6.79352 6.93345 6.79352 7.2771C6.79352 7.62076 6.92423 7.95154 7.15912 8.20232C7.39402 8.4531 7.7155 8.60509 8.05833 8.62745H14.4842C14.8271 8.60509 15.1486 8.4531 15.3835 8.20232C15.6183 7.95154 15.7491 7.62076 15.7491 7.2771C15.7491 6.93345 15.6183 6.60267 15.3835 6.35189C15.1486 6.10111 14.8271 5.94912 14.4842 5.92676Z" fill="#1AA3E9"/>
<path d="M39.8094 5.6055C39.7776 5.82744 39.6843 6.03603 39.54 6.20756C39.4425 6.32224 39.3336 6.43118 39.2304 6.54013C38.2094 7.55936 36.9084 8.25193 35.4929 8.52981C35.0715 8.61085 34.6438 8.65498 34.2146 8.66169C33.7855 8.65498 33.3578 8.61085 32.9363 8.52981C31.5287 8.24865 30.236 7.55623 29.2218 6.54013C29.1129 6.43118 29.004 6.32224 28.9008 6.20756C28.7577 6.04416 28.659 5.84671 28.6142 5.63417C28.5864 5.44299 28.5961 5.24822 28.6428 5.06077C28.7057 4.84558 28.8198 4.64883 28.9753 4.48738L29.0785 4.37843C29.2057 4.24609 29.3605 4.14353 29.532 4.0781C29.7034 4.01267 29.8872 3.986 30.0702 3.99999C30.4078 4.02989 30.7204 4.19035 30.9415 4.44724C31.1965 4.73003 31.4853 4.98038 31.8013 5.19265C32.5181 5.66794 33.3549 5.93036 34.2146 5.94953C35.0682 5.92531 35.8981 5.66317 36.6107 5.19265C36.9252 4.98047 37.2121 4.73009 37.4649 4.44724C37.6934 4.18749 38.0142 4.02706 38.3591 3.99999C38.5399 3.98386 38.722 4.00788 38.8925 4.07033C39.0629 4.13277 39.2175 4.23211 39.3451 4.36123L39.4482 4.47017C39.6075 4.6297 39.7239 4.82695 39.7864 5.04357C39.8351 5.22694 39.8429 5.41877 39.8094 5.6055Z" fill="#1AA3E9"/>
<path d="M28.1561 18.2485H17.3277C16.9525 18.2281 16.5844 18.3573 16.304 18.6076C16.0236 18.858 15.8538 19.2092 15.8316 19.5845C15.8538 19.9598 16.0236 20.311 16.304 20.5614C16.5844 20.8118 16.9525 20.9409 17.3277 20.9205H28.1561C28.5323 20.9425 28.9019 20.814 29.1835 20.5635C29.4651 20.313 29.6358 19.9609 29.6579 19.5845C29.6358 19.2082 29.4651 18.856 29.1835 18.6055C28.9019 18.355 28.5323 18.2266 28.1561 18.2485Z" fill="#1AA3E9"/>
<path d="M11.2628 12.4004C9.58356 12.406 7.95808 12.9934 6.66306 14.0628C5.36805 15.1322 4.48352 16.6175 4.16003 18.2658C3.83654 19.9141 4.09407 21.6236 4.88879 23.1034C5.68352 24.5832 6.96633 25.7417 8.51888 26.3819C10.0714 27.0221 11.7978 27.1043 13.4042 26.6146C15.0105 26.1249 16.3976 25.0935 17.3293 23.696C18.261 22.2985 18.6798 20.6212 18.5143 18.9496C18.3489 17.278 17.6095 15.7154 16.4219 14.5277C15.7445 13.8507 14.94 13.3142 14.0546 12.9491C13.1692 12.584 12.2205 12.3976 11.2628 12.4004ZM11.2628 24.2181C10.5909 24.211 9.92864 24.0563 9.32304 23.7649C8.71745 23.4734 8.18329 23.0525 7.75837 22.5317C7.33344 22.0109 7.02813 21.4031 6.86405 20.7512C6.69997 20.0993 6.68112 19.4193 6.80884 18.7594C6.92514 18.127 7.17388 17.5264 7.5387 16.997C7.90353 16.4675 8.3762 16.0213 8.92567 15.6876C9.47513 15.3539 10.089 15.1402 10.7268 15.0607C11.3647 14.9811 12.0122 15.0374 12.6268 15.2259C13.2413 15.4144 13.8091 15.7308 14.2927 16.1544C14.7764 16.5779 15.165 17.099 15.433 17.6835C15.701 18.2679 15.8424 18.9025 15.8478 19.5454C15.8533 20.1884 15.7227 20.8253 15.4646 21.4142C15.2423 21.9762 14.9111 22.4887 14.4901 22.9222C13.6308 23.7717 12.471 24.2477 11.2628 24.2468V24.2181Z" fill="#1AA3E9"/>
<path d="M34.215 12.4346C32.5357 12.4401 30.9102 13.0276 29.6152 14.097C28.3202 15.1664 27.4357 16.6516 27.1122 18.3C26.7887 19.9483 27.0462 21.6578 27.8409 23.1376C28.6357 24.6173 29.9185 25.7759 31.471 26.4161C33.0236 27.0562 34.75 27.1385 36.3563 26.6488C37.9627 26.1591 39.3497 25.1277 40.2814 23.7302C41.2131 22.3327 41.6319 20.6554 41.4665 18.9837C41.3011 17.3121 40.5616 15.7495 39.3741 14.5619C38.004 13.1971 36.1485 12.432 34.215 12.4346ZM34.215 24.2522C33.1527 24.2554 32.1222 23.8895 31.2996 23.2171C30.477 22.5446 29.9133 21.6074 29.7048 20.5654C29.4963 19.5234 29.6559 18.4413 30.1564 17.504C30.6569 16.5667 31.4672 15.8322 32.4489 15.4261C33.4306 15.02 34.5228 14.9675 35.539 15.2774C36.5552 15.5873 37.4322 16.2406 38.0204 17.1255C38.6085 18.0104 38.8713 19.0722 38.7637 20.1294C38.6562 21.1866 38.1851 22.1736 37.4308 22.922C36.5752 23.7708 35.42 24.2487 34.215 24.2522Z" fill="#1AA3E9"/>
</g>
<defs>
<clipPath id="clip0_1347_17067">
<rect width="292" height="40" fill="white" transform="translate(4 4)"/>
</clipPath>
</defs>
</svg>
