<svg width="25" height="24" viewBox="0 0 25 24" fill="none" xmlns="http://www.w3.org/2000/svg">
<path fill-rule="evenodd" clip-rule="evenodd" d="M18.5 16.12C17.74 16.12 17.06 16.42 16.54 16.89L9.41 12.74C9.46 12.51 9.5 12.28 9.5 12.04C9.5 11.8 9.46 11.57 9.41 11.34L16.46 7.23001C17 7.73001 17.71 8.04001 18.5 8.04001C20.16 8.04001 21.5 6.70001 21.5 5.04001C21.5 3.38001 20.16 2.04001 18.5 2.04001C16.84 2.04001 15.5 3.38001 15.5 5.04001C15.5 5.28001 15.54 5.51001 15.59 5.74001L8.54 9.85001C8 9.35001 7.29 9.04001 6.5 9.04001C4.84 9.04001 3.5 10.38 3.5 12.04C3.5 13.7 4.84 15.04 6.5 15.04C7.29 15.04 8 14.73 8.54 14.23L15.66 18.39C15.61 18.6 15.58 18.82 15.58 19.04C15.58 20.65 16.89 21.96 18.5 21.96C20.11 21.96 21.42 20.65 21.42 19.04C21.42 17.43 20.11 16.12 18.5 16.12Z" fill="#008A00"/>
</svg>
